<?xml version="1.0" encoding="UTF-8" standalone="no"?>
<svg
   width="1212.306"
   height="315.44"
   viewBox="0 0 1212.306 315.43999"
   version="1.1"
   id="svg80"
   xmlns="http://www.w3.org/2000/svg"
   xmlns:svg="http://www.w3.org/2000/svg">
  <defs
     id="defs1">
    <style
       id="style1">.a{fill:#1d1e1b;}.b{fill:#1d1f1c;}.c{fill:none;}.d{fill:#e63026;}.e{fill:#b41922;}.f{fill:#961914;}.g{fill:#611a26;}.h{fill:#453153;}.i{fill:#1c85c8;}.j{fill:#225ca8;}.k{fill:#5dc5ea;}.l{fill:#183b6a;}</style>
  </defs>
  <g
     transform="translate(419.945,52.475)"
     id="g62"
     style="fill:#e6e6e6">
    <path
       class="a"
       d="m 133.725,67.19 -9.941,-38.824 -9.842,38.824 h -12.81 L 84.91,10.61 h 13.5 l 9.941,40.9 10.782,-40.9 h 9.4 l 10.683,40.9 9.842,-40.9 h 13.551 l -16.124,56.58 h -12.81 z"
       transform="translate(-84.91,-10.61)"
       id="path1"
       style="fill:#e6e6e6" />
    <path
       class="a"
       d="M 140.455,67.19 V 43.45 H 113.748 V 67.19 H 101.68 V 10.61 h 12.068 v 22.206 h 26.707 V 10.61 h 12.117 v 56.58 z"
       transform="translate(-18.74,-10.61)"
       id="path2"
       style="fill:#e6e6e6" />
    <path
       class="a"
       d="m 113.78,67.15 v -9.743 l 26.707,-36.2 H 113.78 V 10.62 h 42.484 v 9.694 l -26.707,36.3 h 27.3 V 67.2 H 113.78 Z"
       transform="translate(29.004,-10.571)"
       id="path3"
       style="fill:#e6e6e6" />
    <g
       transform="translate(211.629)"
       id="g17"
       style="fill:#e6e6e6">
      <path
         class="a"
         d="M 176.366,67.19 163.9,21.54 151.44,67.19 h -7.616 L 127.7,10.61 h 7.814 l 12.562,47.183 12.958,-47.183 h 5.836 l 12.958,47.183 12.463,-47.183 h 7.814 l -16.122,56.58 h -7.616 z"
         transform="translate(-127.7,-10.61)"
         id="path4"
         style="fill:#e6e6e6" />
      <path
         class="a"
         d="m 163.029,13.6 c 12.364,0 19.684,9.694 19.684,21.959 v 1.632 h -33.186 c 0.495,7.715 5.935,14.145 14.738,14.145 a 18.055,18.055 0 0 0 12.661,-5.193 l 3.066,4.154 c -4.056,4.056 -9.595,6.281 -16.272,6.281 -12.117,0 -20.871,-8.754 -20.871,-21.564 0,-11.87 8.507,-21.465 20.179,-21.465 z m -13.5,18.893 h 26.9 c -0.1,-6.083 -4.154,-13.65 -13.5,-13.65 -8.753,-0.001 -13.056,7.368 -13.402,13.649 z"
         transform="translate(-67.922,0.991)"
         id="path5"
         style="fill:#e6e6e6" />
      <path
         class="a"
         d="m 155.374,45.559 a 18.614,18.614 0 0 0 13.5,5.836 c 6.281,0 9.694,-2.819 9.694,-6.776 0,-4.5 -5,-5.935 -10.534,-7.32 -6.974,-1.632 -14.837,-3.462 -14.837,-11.969 0,-6.38 5.49,-11.771 15.282,-11.771 a 20.688,20.688 0 0 1 15.183,5.935 L 180.7,23.9 a 16.026,16.026 0 0 0 -12.22,-5.2 c -5.589,0 -9.051,2.522 -9.051,6.182 0,4.006 4.649,5.243 9.99,6.528 7.122,1.632 15.332,3.66 15.332,12.711 0,6.875 -5.49,12.364 -16.123,12.364 -6.677,0 -12.364,-2.028 -16.519,-6.429 l 3.314,-4.6 z"
         transform="translate(-31.384,1.03)"
         id="path6"
         style="fill:#e6e6e6" />
      <path
         class="a"
         d="M 166.546,55.082 V 28.276 h -6.776 v -5.589 h 6.776 V 11.51 h 6.38 v 11.177 h 8.309 v 5.589 h -8.309 v 25.471 c 0,3.066 1.335,5.243 4.154,5.243 a 6.25,6.25 0 0 0 4.352,-1.682 l 1.879,4.748 c -1.632,1.533 -3.907,2.621 -7.616,2.621 -6.034,0 -9.051,-3.462 -9.051,-9.595 z"
         transform="translate(-1.159,-7.059)"
         id="path7"
         style="fill:#e6e6e6" />
      <path
         class="a"
         d="m 168.714,45.559 a 18.614,18.614 0 0 0 13.5,5.836 c 6.281,0 9.694,-2.819 9.694,-6.776 0,-4.5 -5,-5.935 -10.534,-7.32 -6.974,-1.632 -14.837,-3.462 -14.837,-11.969 0,-6.38 5.49,-11.771 15.282,-11.771 A 20.688,20.688 0 0 1 197,19.495 l -2.967,4.4 A 16.027,16.027 0 0 0 181.82,18.7 c -5.589,0 -9.051,2.522 -9.051,6.182 0,4.006 4.649,5.243 9.99,6.528 7.122,1.632 15.332,3.66 15.332,12.711 0,6.875 -5.49,12.364 -16.123,12.364 -6.677,0 -12.364,-2.028 -16.519,-6.429 l 3.314,-4.6 z"
         transform="translate(21.253,1.03)"
         id="path8"
         style="fill:#e6e6e6" />
      <path
         class="a"
         d="m 201.434,66.637 v -4.649 a 17.827,17.827 0 0 1 -13.551,5.688 c -6.974,0 -14.343,-4.649 -14.343,-13.551 0,-8.902 7.369,-13.5 14.343,-13.5 5.589,0 10.287,1.78 13.551,5.589 v -7.372 c 0,-5.49 -4.4,-8.655 -10.337,-8.655 a 16.33,16.33 0 0 0 -12.562,5.688 l -2.968,-4.4 a 21.393,21.393 0 0 1 16.37,-6.776 c 8.655,0 15.876,3.907 15.876,13.848 v 28.14 h -6.38 z m -22.058,-51.98 a 3.908,3.908 0 1 1 3.907,4.006 3.907,3.907 0 0 1 -3.907,-4.006 z m 22.058,35.609 c -2.473,-3.413 -6.776,-5.094 -11.276,-5.094 -5.935,0 -10.089,3.709 -10.089,9 0,5.291 4.154,8.9 10.089,8.9 4.5,0 8.8,-1.682 11.276,-5.094 v -7.711 z m -4.6,-35.609 a 3.969,3.969 0 0 1 4.006,-3.907 3.884,3.884 0 0 1 3.907,3.907 3.957,3.957 0 1 1 -7.913,0 z"
         transform="translate(53.174,-10.058)"
         id="path9"
         style="fill:#e6e6e6" />
      <path
         class="a"
         d="m 202.836,13.56 c 7.468,0 11.87,3.066 15.035,7.122 l -4.253,3.907 a 12.2,12.2 0 0 0 -10.436,-5.341 c -8.754,0 -14.145,6.677 -14.145,15.777 0,9.1 5.441,15.875 14.145,15.875 a 12.317,12.317 0 0 0 10.436,-5.341 l 4.253,3.907 c -3.116,4.056 -7.567,7.122 -15.035,7.122 -12.216,0 -20.426,-9.347 -20.426,-21.564 0,-12.217 8.21,-21.465 20.426,-21.465 z"
         transform="translate(88.173,1.03)"
         id="path10"
         style="fill:#e6e6e6" />
      <path
         class="a"
         d="M 218.956,67.19 V 40.235 c 0,-7.221 -3.709,-9.347 -9.249,-9.347 a 15.97,15.97 0 0 0 -12.117,6.38 V 67.19 h -6.38 V 10.61 h 6.38 V 32.174 A 20.323,20.323 0 0 1 212.279,25.2 c 8.556,0 13.057,4.154 13.057,13.057 V 67.19 Z"
         transform="translate(122.895,-10.61)"
         id="path11"
         style="fill:#e6e6e6" />
      <path
         class="a"
         d="m 203.1,45.559 a 18.7,18.7 0 0 0 13.5,5.836 c 6.281,0 9.694,-2.819 9.694,-6.776 0,-4.5 -5,-5.935 -10.534,-7.32 -6.974,-1.632 -14.837,-3.462 -14.837,-11.969 0,-6.38 5.49,-11.771 15.282,-11.771 a 20.688,20.688 0 0 1 15.183,5.935 l -2.967,4.4 A 16.026,16.026 0 0 0 216.21,18.7 c -5.589,0 -9.051,2.522 -9.051,6.182 0,4.006 4.649,5.243 9.99,6.528 7.122,1.632 15.332,3.66 15.332,12.711 0,6.875 -5.49,12.364 -16.123,12.364 -6.677,0 -12.364,-2.028 -16.519,-6.429 l 3.314,-4.6 z"
         transform="translate(156.947,1.03)"
         id="path12"
         style="fill:#e6e6e6" />
      <path
         class="a"
         d="m 208.13,14.893 a 4.253,4.253 0 0 1 4.253,-4.253 4.303,4.303 0 1 1 0,8.606 4.245,4.245 0 0 1 -4.253,-4.353 z m 1.088,52.178 V 26.12 h 6.38 v 40.951 z"
         transform="translate(189.658,-10.492)"
         id="path13"
         style="fill:#e6e6e6" />
      <path
         class="a"
         d="m 214.664,45.559 a 18.614,18.614 0 0 0 13.5,5.836 c 6.281,0 9.694,-2.819 9.694,-6.776 0,-4.5 -5,-5.935 -10.535,-7.32 -6.974,-1.632 -14.837,-3.462 -14.837,-11.969 0,-6.38 5.49,-11.771 15.282,-11.771 a 20.688,20.688 0 0 1 15.184,5.935 l -2.968,4.4 A 16.026,16.026 0 0 0 227.77,18.7 c -5.589,0 -9.051,2.522 -9.051,6.182 0,4.006 4.649,5.243 9.99,6.528 7.122,1.632 15.332,3.66 15.332,12.711 0,6.875 -5.49,12.364 -16.123,12.364 -6.677,0 -12.364,-2.028 -16.519,-6.429 l 3.314,-4.6 z"
         transform="translate(202.56,1.03)"
         id="path14"
         style="fill:#e6e6e6" />
      <path
         class="a"
         d="m 239.846,13.56 c 7.468,0 11.87,3.066 15.035,7.122 l -4.253,3.907 a 12.2,12.2 0 0 0 -10.436,-5.341 c -8.754,0 -14.145,6.677 -14.145,15.777 0,9.1 5.441,15.875 14.145,15.875 a 12.316,12.316 0 0 0 10.436,-5.341 l 4.253,3.907 c -3.116,4.056 -7.567,7.122 -15.035,7.122 -12.216,0 -20.426,-9.347 -20.426,-21.564 0,-12.217 8.21,-21.465 20.426,-21.465 z"
         transform="translate(234.205,1.03)"
         id="path15"
         style="fill:#e6e6e6" />
      <path
         class="a"
         d="M 255.966,67.19 V 40.235 c 0,-7.221 -3.709,-9.347 -9.249,-9.347 A 15.97,15.97 0 0 0 234.6,37.268 V 67.19 h -6.38 V 10.61 h 6.38 V 32.174 A 20.323,20.323 0 0 1 249.289,25.2 c 8.556,0 13.057,4.154 13.057,13.057 V 67.19 Z"
         transform="translate(268.928,-10.61)"
         id="path16"
         style="fill:#e6e6e6" />
      <path
         class="a"
         d="m 257.239,13.6 c 12.364,0 19.684,9.694 19.684,21.959 v 1.632 h -33.186 c 0.495,7.715 5.935,14.145 14.738,14.145 a 18.055,18.055 0 0 0 12.661,-5.193 L 274.2,50.3 c -4.056,4.056 -9.595,6.281 -16.271,6.281 -12.117,0 -20.871,-8.754 -20.871,-21.564 0,-11.87 8.507,-21.465 20.179,-21.465 z m -13.5,18.893 h 26.905 c -0.1,-6.083 -4.154,-13.65 -13.5,-13.65 -8.758,-0.001 -13.061,7.368 -13.407,13.649 z"
         transform="translate(303.809,0.991)"
         id="path17"
         style="fill:#e6e6e6" />
    </g>
    <g
       transform="translate(6.776,86.106)"
       id="g34"
       style="fill:#e6e6e6">
      <path
         class="a"
         d="M 126.39,84.6 V 58.634 H 93.3 V 84.6 H 86.28 V 28.02 h 7.02 v 24.333 h 33.09 V 28.02 h 7.023 V 84.6 Z"
         transform="translate(-86.28,-28.02)"
         id="path18"
         style="fill:#e6e6e6" />
      <path
         class="a"
         d="m 97.93,52.435 c 0,-11.87 7.814,-21.465 20.278,-21.465 12.464,0 20.278,9.595 20.278,21.465 C 138.486,64.305 130.671,74 118.208,74 105.745,74 97.93,64.3 97.93,52.435 Z m 33.829,0 c 0,-8.309 -4.847,-15.777 -13.551,-15.777 -8.704,0 -13.65,7.468 -13.65,15.777 0,8.309 4.942,15.875 13.65,15.875 8.708,0 13.551,-7.468 13.551,-15.875 z"
         transform="translate(-40.312,-16.38)"
         id="path19"
         style="fill:#e6e6e6" />
      <path
         class="a"
         d="m 128.056,30.97 c 7.468,0 11.87,3.066 15.035,7.122 L 138.838,42 A 12.2,12.2 0 0 0 128.4,36.658 c -8.754,0 -14.145,6.677 -14.145,15.777 0,9.1 5.445,15.876 14.145,15.876 a 12.317,12.317 0 0 0 10.436,-5.341 l 4.253,3.907 C 139.975,70.932 135.524,74 128.056,74 115.84,74 107.63,64.653 107.63,52.436 c 0,-12.217 8.21,-21.465 20.426,-21.465 z"
         transform="translate(-2.038,-16.38)"
         id="path20"
         style="fill:#e6e6e6" />
      <path
         class="a"
         d="M 144.176,84.6 V 57.645 c 0,-7.221 -3.709,-9.347 -9.249,-9.347 a 15.97,15.97 0 0 0 -12.117,6.38 V 84.6 h -6.38 V 28.02 h 6.38 V 49.584 A 20.323,20.323 0 0 1 137.5,42.61 c 8.556,0 13.057,4.154 13.057,13.057 V 84.6 Z"
         transform="translate(32.685,-28.02)"
         id="path21"
         style="fill:#e6e6e6" />
      <path
         class="a"
         d="m 128.324,62.93 a 18.7,18.7 0 0 0 13.5,5.836 c 6.281,0 9.694,-2.819 9.694,-6.776 0,-4.5 -5,-5.935 -10.534,-7.27 -6.974,-1.632 -14.837,-3.462 -14.837,-11.969 0,-6.38 5.49,-11.771 15.282,-11.771 a 20.688,20.688 0 0 1 15.184,5.935 l -2.967,4.4 A 16.027,16.027 0 0 0 141.43,36.122 c -5.589,0 -9.051,2.522 -9.051,6.182 0,4.006 4.649,5.243 9.99,6.528 7.122,1.632 15.332,3.66 15.332,12.711 0,6.875 -5.49,12.364 -16.123,12.364 -6.677,0 -12.364,-2.028 -16.519,-6.429 l 3.314,-4.6 z"
         transform="translate(66.737,-16.341)"
         id="path22"
         style="fill:#e6e6e6" />
      <path
         class="a"
         d="m 153.516,30.97 c 7.468,0 11.87,3.066 15.035,7.122 L 164.3,42 a 12.2,12.2 0 0 0 -10.436,-5.341 c -8.754,0 -14.145,6.677 -14.145,15.777 0,9.1 5.44,15.876 14.145,15.876 A 12.317,12.317 0 0 0 164.3,62.969 l 4.253,3.907 C 165.435,70.932 160.984,74 153.516,74 141.3,74 133.09,64.651 133.09,52.435 c 0,-12.216 8.21,-21.465 20.426,-21.465 z"
         transform="translate(98.421,-16.38)"
         id="path23"
         style="fill:#e6e6e6" />
      <path
         class="a"
         d="M 169.626,84.6 V 57.645 c 0,-7.221 -3.709,-9.347 -9.249,-9.347 a 15.97,15.97 0 0 0 -12.117,6.38 V 84.6 h -6.38 V 28.02 h 6.38 v 21.564 a 20.323,20.323 0 0 1 14.689,-6.974 c 8.556,0 13.057,4.154 13.057,13.057 V 84.6 Z"
         transform="translate(133.104,-28.02)"
         id="path24"
         style="fill:#e6e6e6" />
      <path
         class="a"
         d="m 178.827,72.17 v -5.786 a 20.042,20.042 0 0 1 -14.59,6.776 c -8.556,0 -13.057,-4.154 -13.057,-13.057 V 31.17 h 6.38 v 26.954 c 0,7.221 3.66,9.347 9.15,9.347 a 15.637,15.637 0 0 0 12.117,-6.182 V 31.17 h 6.38 v 40.951 h -6.38 z"
         transform="translate(169.8,-15.591)"
         id="path25"
         style="fill:#e6e6e6" />
      <path
         class="a"
         d="M 160.49,84.6 V 28.02 h 6.38 V 84.6 Z"
         transform="translate(206.535,-28.02)"
         id="path26"
         style="fill:#e6e6e6" />
      <path
         class="a"
         d="m 183.929,31.009 c 12.364,0 19.684,9.694 19.684,21.959 V 54.6 h -33.186 c 0.495,7.715 5.935,14.145 14.738,14.145 a 18.055,18.055 0 0 0 12.661,-5.193 l 3.066,4.154 c -4.056,4.056 -9.595,6.281 -16.272,6.281 -12.117,0 -20.871,-8.754 -20.871,-21.564 0,-11.87 8.507,-21.465 20.179,-21.465 z m -13.5,18.942 h 26.9 c -0.1,-6.133 -4.154,-13.65 -13.5,-13.65 -8.753,-0.001 -13.056,7.37 -13.402,13.651 z"
         transform="translate(219.398,-16.419)"
         id="path27"
         style="fill:#e6e6e6" />
      <path
         class="a"
         d="m 177.67,84.6 v -5.836 l 31.8,-44.462 h -31.8 V 28.02 h 40.8 v 5.836 l -31.8,44.462 h 32.395 V 84.6 h -41.4 z"
         transform="translate(274.323,-28.02)"
         id="path28"
         style="fill:#e6e6e6" />
      <path
         class="a"
         d="M 227.333,72.131 216.65,39.242 205.967,72.131 h -6.38 L 186.53,31.18 h 6.627 l 9.99,32.642 10.782,-32.642 h 5.44 l 10.782,32.642 9.99,-32.642 h 6.627 l -13.056,40.951 z"
         transform="translate(309.283,-15.551)"
         id="path29"
         style="fill:#e6e6e6" />
      <path
         class="a"
         d="m 199.94,32.3 a 4.253,4.253 0 0 1 4.253,-4.253 4.303,4.303 0 1 1 0,8.606 4.245,4.245 0 0 1 -4.253,-4.353 z m 1.088,52.178 V 43.53 h 6.38 v 40.951 z"
         transform="translate(362.195,-27.902)"
         id="path30"
         style="fill:#e6e6e6" />
      <path
         class="a"
         d="m 223.786,30.97 c 7.468,0 11.87,3.066 15.035,7.122 L 234.568,42 a 12.2,12.2 0 0 0 -10.436,-5.341 c -8.754,0 -14.145,6.677 -14.145,15.777 0,9.1 5.44,15.876 14.145,15.876 a 12.317,12.317 0 0 0 10.436,-5.341 l 4.253,3.907 C 235.705,70.932 231.254,74 223.786,74 211.57,74 203.36,64.653 203.36,52.436 c 0,-12.217 8.21,-21.465 20.426,-21.465 z"
         transform="translate(375.69,-16.38)"
         id="path31"
         style="fill:#e6e6e6" />
      <path
         class="a"
         d="M 240.054,84.6 225.316,66.2 218.54,72.877 V 84.6 h -6.38 V 28.02 h 6.38 V 65.41 L 240.1,43.6 h 8.062 l -18.148,18.6 18.25,22.4 H 240.1 Z"
         transform="translate(410.413,-28.02)"
         id="path32"
         style="fill:#e6e6e6" />
      <path
         class="a"
         d="m 248.074,72.92 v -4.649 a 17.827,17.827 0 0 1 -13.551,5.688 c -6.974,0 -14.343,-4.649 -14.343,-13.551 0,-8.902 7.369,-13.5 14.343,-13.5 5.589,0 10.287,1.78 13.551,5.589 v -7.372 c 0,-5.49 -4.4,-8.655 -10.337,-8.655 a 16.33,16.33 0 0 0 -12.562,5.688 l -2.968,-4.4 a 21.393,21.393 0 0 1 16.37,-6.776 c 8.655,0 15.876,3.907 15.876,13.848 v 28.14 h -6.38 z m 0,-16.37 c -2.473,-3.413 -6.776,-5.094 -11.276,-5.094 -5.935,0 -10.089,3.709 -10.089,9 0,5.291 4.154,8.9 10.089,8.9 4.5,0 8.8,-1.682 11.276,-5.094 z"
         transform="translate(442.057,-16.341)"
         id="path33"
         style="fill:#e6e6e6" />
      <path
         class="a"
         d="m 257.147,72.17 v -5.786 a 20.042,20.042 0 0 1 -14.59,6.776 C 234,73.16 229.5,69.005 229.5,60.1 V 31.17 h 6.38 v 26.954 c 0,7.221 3.66,9.347 9.15,9.347 a 15.637,15.637 0 0 0 12.117,-6.182 V 31.17 h 6.38 v 40.951 h -6.38 z"
         transform="translate(478.832,-15.591)"
         id="path34"
         style="fill:#e6e6e6" />
    </g>
    <g
       transform="translate(6.677,174.684)"
       id="g61"
       style="fill:#e6e6e6">
      <path
         class="b"
         d="m 86.26,46.05 h 3.017 v 21.217 c 0,6.974 3.66,11.227 10.436,11.227 6.776,0 10.436,-4.253 10.436,-11.227 V 46.05 h 3.017 v 21.267 c 0,8.507 -4.55,13.848 -13.452,13.848 -8.902,0 -13.454,-5.391 -13.454,-13.848 z"
         transform="translate(-86.26,-45.456)"
         id="path35"
         style="fill:#e6e6e6" />
      <path
         class="b"
         d="M 110.236,73.459 V 56.545 c 0,-4.8 -2.423,-6.232 -6.034,-6.232 a 10.64,10.64 0 0 0 -8.111,4.3 V 73.459 H 93.42 V 48.483 h 2.671 v 3.759 a 12.714,12.714 0 0 1 9,-4.4 c 5.045,0 7.864,2.473 7.864,8.111 V 73.41 h -2.671 z"
         transform="translate(-58.008,-38.394)"
         id="path36"
         style="fill:#e6e6e6" />
      <path
         class="b"
         d="m 98.84,48.347 a 2.123,2.123 0 0 1 2.077,-2.077 2.077,2.077 0 1 1 -2.077,2.077 z M 99.582,79.6 V 54.628 h 2.671 V 79.6 Z"
         transform="translate(-36.622,-44.588)"
         id="path37"
         style="fill:#e6e6e6" />
      <path
         class="b"
         d="M 111.054,72.946 100.52,47.97 h 3.017 l 9.1,21.811 9,-21.811 h 3.063 l -10.53,24.976 h -3.07 z"
         transform="translate(-29.993,-37.881)"
         id="path38"
         style="fill:#e6e6e6" />
      <path
         class="b"
         d="m 117.958,47.84 c 7.617,0 11.771,6.034 11.771,13.255 v 0.742 h -20.872 c 0.247,5.44 3.858,9.941 9.793,9.941 a 10.946,10.946 0 0 0 8.161,-3.462 L 128.2,70.1 a 12.949,12.949 0 0 1 -9.793,4.056 c -7.27,0 -12.513,-5.44 -12.513,-13.156 0,-7.221 5.144,-13.057 12.068,-13.057 z m -9.1,11.82 h 18.151 c -0.049,-4.253 -2.869,-9.5 -9.1,-9.5 -5.886,0.005 -8.854,5.148 -9.052,9.5 z"
         transform="translate(-8.805,-38.394)"
         id="path39"
         style="fill:#e6e6e6" />
      <path
         class="b"
         d="M 112.05,73.341 V 48.365 h 2.671 v 4.3 c 2.127,-2.77 4.946,-4.8 8.408,-4.8 v 2.967 a 5.857,5.857 0 0 0 -1.335,-0.1 c -2.522,0 -5.935,2.275 -7.072,4.451 v 18.2 h -2.672 z"
         transform="translate(15.501,-38.275)"
         id="path40"
         style="fill:#e6e6e6" />
      <path
         class="b"
         d="m 116.534,68.078 a 10.325,10.325 0 0 0 8.062,3.66 c 4.2,0 6.677,-2.077 6.677,-4.946 0,-3.215 -3.413,-4.154 -6.974,-5.045 -4.2,-1.039 -8.8,-2.127 -8.8,-6.974 0,-3.808 3.264,-6.924 8.9,-6.924 a 11.471,11.471 0 0 1 8.952,3.66 l -1.484,1.929 a 9.05,9.05 0 0 0 -7.419,-3.314 c -3.858,0 -6.232,1.929 -6.232,4.5 0,2.869 3.215,3.61 6.677,4.5 4.3,1.088 9.1,2.275 9.1,7.616 0,4.056 -3.116,7.32 -9.348,7.32 -4.055,0 -7.122,-1.187 -9.595,-3.907 l 1.583,-2.028 z"
         transform="translate(27.338,-38.354)"
         id="path41"
         style="fill:#e6e6e6" />
      <path
         class="b"
         d="m 120.02,48.347 a 2.123,2.123 0 0 1 2.08,-2.077 2.077,2.077 0 1 1 -2.077,2.077 z m 0.742,31.257 V 54.628 h 2.671 V 79.6 Z"
         transform="translate(46.949,-44.588)"
         id="path42"
         style="fill:#e6e6e6" />
      <path
         class="b"
         d="m 125.864,73.594 v -17.8 h -4.154 v -2.379 h 4.154 V 46.59 h 2.72 v 6.825 h 5.045 v 2.374 h -5.045 v 17.36 c 0,2.028 0.841,3.413 2.572,3.413 a 3.911,3.911 0 0 0 2.77,-1.187 l 1.039,2.077 a 5.605,5.605 0 0 1 -4.253,1.533 c -3.314,0 -4.9,-2.028 -4.9,-5.44 z"
         transform="translate(53.617,-43.326)"
         id="path43"
         style="fill:#e6e6e6" />
      <path
         class="b"
         d="m 127.491,80.256 a 6.515,6.515 0 0 0 2.176,0.4 c 1.632,0 2.77,-0.692 3.759,-3.066 L 135.404,73.139 124.87,47.96 h 3.017 l 9.1,21.811 9,-21.811 h 3.066 l -12.907,30.466 c -1.335,3.165 -3.462,4.649 -6.43,4.649 a 10.511,10.511 0 0 1 -2.621,-0.346 l 0.445,-2.473 z"
         transform="translate(66.086,-37.92)"
         id="path44"
         style="fill:#e6e6e6" />
      <path
         class="b"
         d="m 132.91,60.907 c 0,-7.27 4.7,-13.057 11.969,-13.057 7.269,0 12.068,5.787 12.068,13.057 0,7.27 -4.647,13.156 -12.068,13.156 -7.421,0 -11.969,-5.836 -11.969,-13.156 z m 21.168,0 c 0,-5.539 -3.264,-10.633 -9.15,-10.633 -5.886,0 -9.1,5.144 -9.1,10.633 0,5.489 3.314,10.683 9.1,10.683 5.786,0 9.15,-5.144 9.15,-10.683 z"
         transform="translate(97.81,-38.354)"
         id="path45"
         style="fill:#e6e6e6" />
      <path
         class="b"
         d="m 145.225,58.354 v 22.6 h -2.671 v -22.6 H 138.4 V 55.98 h 4.154 V 53.7 c 0,-4.9 2.621,-7.765 6.776,-7.765 a 6.388,6.388 0 0 1 3.363,0.791 l -0.841,2.127 a 4.416,4.416 0 0 0 -2.275,-0.593 c -2.869,0 -4.352,1.978 -4.352,5.44 v 2.28 h 5.045 v 2.374 z"
         transform="translate(119.472,-45.891)"
         id="path46"
         style="fill:#e6e6e6" />
      <path
         class="b"
         d="M 172.266,80.522 168.8,72.065 h -18.344 l -3.462,8.457 h -3.314 l 14.1,-34.472 h 3.66 l 14.1,34.472 h -3.314 z m -12.661,-31.6 -8.205,20.423 h 16.469 z"
         transform="translate(140.306,-45.456)"
         id="path47"
         style="fill:#e6e6e6" />
      <path
         class="b"
         d="M 153.871,82.955 H 151.2 V 48.483 h 2.671 v 3.907 a 10.7,10.7 0 0 1 8.7,-4.55 c 6.677,0 11.177,5.045 11.177,13.057 0,8.012 -4.5,13.156 -11.177,13.156 a 10.787,10.787 0 0 1 -8.7,-4.649 z m 8.21,-32.691 a 10.071,10.071 0 0 0 -8.21,4.451 v 12.364 a 10.152,10.152 0 0 0 8.21,4.55 c 5.589,0 8.754,-4.649 8.754,-10.683 0,-6.034 -3.165,-10.633 -8.754,-10.633 z"
         transform="translate(169.978,-38.394)"
         id="path48"
         style="fill:#e6e6e6" />
      <path
         class="b"
         d="m 159.8,82.955 h -2.67 V 48.483 h 2.67 v 3.907 a 10.7,10.7 0 0 1 8.7,-4.55 c 6.677,0 11.177,5.045 11.177,13.057 0,8.012 -4.5,13.156 -11.177,13.156 a 10.787,10.787 0 0 1 -8.7,-4.649 z m 8.21,-32.691 a 10.071,10.071 0 0 0 -8.21,4.451 v 12.364 a 10.152,10.152 0 0 0 8.21,4.55 c 5.589,0 8.754,-4.649 8.754,-10.683 0,-6.034 -3.165,-10.633 -8.754,-10.633 z"
         transform="translate(193.376,-38.394)"
         id="path49"
         style="fill:#e6e6e6" />
      <path
         class="b"
         d="M 163.07,80.522 V 46.05 h 2.671 v 34.472 z"
         transform="translate(216.814,-45.456)"
         id="path50"
         style="fill:#e6e6e6" />
      <path
         class="b"
         d="m 165.1,48.347 a 2.123,2.123 0 0 1 2.077,-2.077 2.077,2.077 0 1 1 -2.077,2.077 z m 0.742,31.257 V 54.628 h 2.671 V 79.6 Z"
         transform="translate(224.824,-44.588)"
         id="path51"
         style="fill:#e6e6e6" />
      <path
         class="b"
         d="m 179.188,47.84 c 7.616,0 11.771,6.034 11.771,13.255 v 0.742 h -20.872 c 0.247,5.44 3.858,9.941 9.793,9.941 a 10.946,10.946 0 0 0 8.16,-3.462 l 1.385,1.78 a 12.95,12.95 0 0 1 -9.793,4.056 c -7.27,0 -12.513,-5.44 -12.513,-13.156 0,-7.221 5.144,-13.057 12.068,-13.057 z m -9.1,11.82 h 18.151 c -0.049,-4.253 -2.869,-9.5 -9.1,-9.5 -5.886,0.005 -8.854,5.148 -9.052,9.5 z"
         transform="translate(232.794,-38.394)"
         id="path52"
         style="fill:#e6e6e6" />
      <path
         class="b"
         d="m 192.912,80.522 v -3.957 a 10.686,10.686 0 0 1 -8.7,4.6 c -6.627,0 -11.177,-5.045 -11.177,-13.057 0,-8.012 4.55,-13.156 11.177,-13.156 a 10.717,10.717 0 0 1 8.7,4.649 V 46.05 h 2.72 v 34.472 z m 0,-18.6 a 9.958,9.958 0 0 0 -8.21,-4.55 c -5.539,0 -8.754,4.649 -8.754,10.683 0,6.034 3.215,10.633 8.754,10.633 a 10,10 0 0 0 8.21,-4.451 V 61.876 Z"
         transform="translate(256.114,-45.456)"
         id="path53"
         style="fill:#e6e6e6" />
      <path
         class="b"
         d="m 183.428,73.923 a 14.066,14.066 0 0 0 10.732,5 c 7.072,0 9.1,-3.907 9.1,-6.875 0,-4.847 -4.6,-6.182 -9.446,-7.518 -5.44,-1.484 -11.227,-3.066 -11.227,-9.4 0,-5.638 5.045,-9.2 11.326,-9.2 5.144,0 9,1.83 11.672,4.847 l -1.978,2.176 a 12.284,12.284 0 0 0 -9.892,-4.352 c -4.6,0 -8.062,2.621 -8.062,6.38 0,4.1 4.3,5.292 9,6.528 5.589,1.583 11.672,3.363 11.672,10.337 0,4.451 -2.967,9.793 -12.265,9.793 -5.688,0 -9.99,-2.275 -12.612,-5.49 l 1.929,-2.226 z"
         transform="translate(289.337,-45.93)"
         id="path54"
         style="fill:#e6e6e6" />
      <path
         class="b"
         d="m 199.767,47.879 a 10.247,10.247 0 0 1 8.853,4.253 l -1.879,1.632 a 7.968,7.968 0 0 0 -6.825,-3.462 c -5.836,0 -9.4,4.649 -9.4,10.633 0,5.984 3.561,10.683 9.4,10.683 a 8.017,8.017 0 0 0 6.825,-3.511 l 1.879,1.632 a 10.279,10.279 0 0 1 -8.853,4.3 c -7.32,0 -12.167,-5.836 -12.167,-13.156 0,-7.32 4.8,-13.057 12.167,-13.057 z"
         transform="translate(313.603,-38.433)"
         id="path55"
         style="fill:#e6e6e6" />
      <path
         class="b"
         d="m 192.85,48.347 a 2.123,2.123 0 0 1 2.077,-2.077 2.077,2.077 0 1 1 -2.077,2.077 z m 0.742,31.257 V 54.628 h 2.671 V 79.6 Z"
         transform="translate(334.319,-44.588)"
         id="path56"
         style="fill:#e6e6e6" />
      <path
         class="b"
         d="m 206.938,47.84 c 7.616,0 11.771,6.034 11.771,13.255 v 0.742 h -20.872 c 0.247,5.44 3.858,9.941 9.793,9.941 a 10.946,10.946 0 0 0 8.16,-3.462 l 1.385,1.78 a 12.95,12.95 0 0 1 -9.793,4.056 c -7.27,0 -12.513,-5.44 -12.513,-13.156 0,-7.221 5.144,-13.057 12.068,-13.057 z m -9.1,11.82 h 18.151 c -0.049,-4.253 -2.869,-9.5 -9.1,-9.5 -5.889,0.005 -8.854,5.148 -9.052,9.5 z"
         transform="translate(342.289,-38.394)"
         id="path57"
         style="fill:#e6e6e6" />
      <path
         class="b"
         d="M 217.856,73.459 V 56.545 c 0,-4.8 -2.423,-6.232 -6.034,-6.232 a 10.639,10.639 0 0 0 -8.111,4.3 V 73.459 H 201.04 V 48.483 h 2.671 v 3.759 a 12.714,12.714 0 0 1 9,-4.4 c 5.045,0 7.864,2.473 7.864,8.111 V 73.41 h -2.671 z"
         transform="translate(366.635,-38.394)"
         id="path58"
         style="fill:#e6e6e6" />
      <path
         class="b"
         d="m 218.5,47.879 a 10.247,10.247 0 0 1 8.853,4.253 l -1.879,1.632 a 7.968,7.968 0 0 0 -6.825,-3.462 c -5.836,0 -9.4,4.649 -9.4,10.633 0,5.984 3.561,10.683 9.4,10.683 a 8.016,8.016 0 0 0 6.825,-3.511 l 1.879,1.632 a 10.279,10.279 0 0 1 -8.853,4.3 c -7.32,0 -12.167,-5.836 -12.167,-13.156 0,-7.32 4.8,-13.057 12.167,-13.057 z"
         transform="translate(387.508,-38.433)"
         id="path59"
         style="fill:#e6e6e6" />
      <path
         class="b"
         d="m 223.408,47.84 c 7.616,0 11.771,6.034 11.771,13.255 v 0.742 h -20.872 c 0.247,5.44 3.858,9.941 9.793,9.941 a 10.946,10.946 0 0 0 8.161,-3.462 l 1.385,1.78 a 12.95,12.95 0 0 1 -9.793,4.056 c -7.27,0 -12.513,-5.44 -12.513,-13.156 0,-7.221 5.144,-13.057 12.068,-13.057 z m -9.1,11.82 h 18.151 c -0.049,-4.253 -2.869,-9.5 -9.1,-9.5 -5.886,0.005 -8.854,5.148 -9.052,9.5 z"
         transform="translate(407.276,-38.394)"
         id="path60"
         style="fill:#e6e6e6" />
      <path
         class="b"
         d="m 218.584,68.078 a 10.325,10.325 0 0 0 8.062,3.66 c 4.2,0 6.677,-2.077 6.677,-4.946 0,-3.215 -3.413,-4.154 -6.974,-5.045 -4.2,-1.039 -8.8,-2.127 -8.8,-6.974 0,-3.808 3.264,-6.924 8.9,-6.924 a 11.471,11.471 0 0 1 8.952,3.66 l -1.484,1.929 a 9.051,9.051 0 0 0 -7.419,-3.314 c -3.858,0 -6.232,1.929 -6.232,4.5 0,2.869 3.215,3.61 6.677,4.5 4.3,1.088 9.1,2.275 9.1,7.616 0,4.056 -3.116,7.32 -9.348,7.32 -4.056,0 -7.122,-1.187 -9.595,-3.907 l 1.583,-2.028 z"
         transform="translate(430.004,-38.354)"
         id="path61"
         style="fill:#e6e6e6" />
    </g>
  </g>
  <path
     class="d"
     d="M 107.471,262.867 H 0 v 52.573 h 48.567 z"
     id="path62"
     style="fill:#e63026" />
  <path
     class="d"
     d="m 107.174,236.556 -61.871,-3.907 c 0.692,1.286 1.335,2.621 2.077,3.907 h 59.745 z"
     id="path63"
     style="fill:#e63026" />
  <path
     class="d"
     d="M 80.764,177.603 30.565,121.122 a 159.408,159.408 0 0 0 -4.3,36.6 156.593,156.593 0 0 0 21.168,78.835 h 67.061 a 105.13,105.13 0 0 1 -33.73,-59"
     id="path64"
     style="fill:#e63026" />
  <path
     class="e"
     d="m 26.509,164.001 a 156.04,156.04 0 0 0 4.7,32.494 l 73,29.576 A 107.459,107.459 0 0 1 92.436,209.304 Z"
     id="path65"
     style="fill:#b41922" />
  <path
     class="f"
     d="m 38.329,97.234 a 160.992,160.992 0 0 0 -7.715,23.789 l 50.15,56.483 a 105.074,105.074 0 0 1 18.052,-81.36 l -60.437,1.039 z"
     id="path66"
     style="fill:#961914" />
  <path
     class="e"
     d="M 107.867,85.265 84.918,35.016 a 157.986,157.986 0 0 0 -33.532,37.39 l 50.645,19.486 c 1.83,-2.275 3.759,-4.5 5.836,-6.627"
     id="path67"
     style="fill:#b41922" />
  <path
     class="g"
     d="M 51.387,72.406 A 157.472,157.472 0 0 0 38.132,97.679 l 60.536,-1.385 c 1.088,-1.484 2.226,-2.967 3.363,-4.4 L 51.337,72.406 Z"
     id="path68"
     style="fill:#611a26" />
  <path
     class="f"
     d="M 176.91,0.198 A 156.972,156.972 0 0 0 84.77,35.165 l 23.047,50.15 A 107.2,107.2 0 0 1 133.09,65.729 Z"
     id="path69"
     style="fill:#961914" />
  <path
     class="h"
     d="M 214.597,2.967 A 159.727,159.727 0 0 0 184.032,0 c -2.37,0 -4.748,0.049 -7.122,0.2 l -43.968,65.628 a 105.087,105.087 0 0 1 94.959,-3.66 L 214.646,3.017 Z"
     id="path70"
     style="fill:#453153" />
  <g
     transform="translate(139.372,2.967)"
     id="g79">
    <path
       class="i"
       d="M 99.475,23.6 A 157.14,157.14 0 0 0 43.39,0.6 l 13.255,59.151 c 1.533,0.692 3.017,1.434 4.451,2.176 L 99.475,23.548 Z"
       transform="translate(31.835,-0.6)"
       id="path71"
       style="fill:#1c85c8" />
    <path
       class="j"
       d="M 90.542,8.86 C 88.811,7.624 87.08,6.437 85.349,5.25 L 46.97,43.629 A 100.509,100.509 0 0 1 58.494,50.6 l 45.3,11.326 z"
       transform="translate(45.961,17.748)"
       id="path72"
       style="fill:#225ca8" />
    <path
       class="k"
       d="M 55.78,5.98 69.035,59.048 85.949,34.27 A 160.489,160.489 0 0 0 55.78,5.98"
       transform="translate(80.723,20.628)"
       id="path73"
       style="fill:#5dc5ea" />
    <path
       class="k"
       d="M 124.246,25.736 78.943,14.41 a 106.042,106.042 0 0 1 34.868,40.7 L 124.247,25.732 Z M 41.8,256.9 a 1.914,1.914 0 0 0 0.445,-0.049 L 63.858,196.018 A 106.6,106.6 0 0 1 46.8,202.3 l -4.946,54.6 z"
       transform="translate(25.561,53.891)"
       id="path74"
       style="fill:#5dc5ea" />
    <path
       class="l"
       d="M 75.385,11.7 58.47,36.478 105.85,71.445 a 157.313,157.313 0 0 0 -30.466,-59.7"
       transform="translate(91.337,43.198)"
       id="path75"
       style="fill:#183b6a" />
    <path
       class="i"
       d="m 58.47,16.7 46.589,118.154 a 158.34,158.34 0 0 0 5.984,-43.028 153.547,153.547 0 0 0 -5.44,-41 L 58.47,16.749 Z"
       transform="translate(91.337,62.927)"
       id="path76"
       style="fill:#1c85c8" />
    <path
       class="l"
       d="M 170.509,134.854 123.92,16.7 113.485,46.078 a 104.726,104.726 0 0 1 10.436,45.7 105.121,105.121 0 0 1 -60.437,95.156 L 41.87,247.766 A 157.933,157.933 0 0 0 170.46,134.8"
       transform="translate(25.838,62.927)"
       id="path77"
       style="fill:#183b6a" />
    <path
       class="i"
       d="m 79.488,107.248 c 0.495,-0.049 0.989,-0.1 1.484,-0.2 L 85.917,52.4 A 103.906,103.906 0 0 1 58.27,56.109 H 31.86 l 47.578,51.139 z"
       transform="translate(-13.66,203.79)"
       id="path78"
       style="fill:#1c85c8" />
    <path
       class="g"
       d="m 72.84,105.723 a 165.974,165.974 0 0 0 21.168,-1.434 L 46.479,53.15 H 28.18 l 9.694,52.573 z"
       transform="translate(-28.18,206.75)"
       id="path79"
       style="fill:#611a26" />
  </g>
  <path
     class="e"
     d="m 47.924,315.44 h 101.091 l -9.644,-52.573 h -32.246 z"
     id="path80"
     style="fill:#b41922" />
</svg>
